<svg width="24" height="26" viewBox="0 0 24 26" fill="none" xmlns="http://www.w3.org/2000/svg">
<g id="&#240;&#159;&#166;&#134; icon &#34;book&#34;">
<path id="Vector" d="M3.35678 20.0729H23.08V0H3.30235C2.42737 0.00270153 1.58904 0.337683 0.970342 0.931825C0.351641 1.52597 0.0028132 2.33102 0 3.17126V21.6542H0.00059886C0.00059886 21.6621 0 21.6699 0 21.6779C0 23.5283 1.51228 25.0913 3.30235 25.0913H23.08V23.4184H3.30235C2.48567 23.4184 1.74189 22.5888 1.74189 21.6777C1.74189 20.8079 2.48137 20.0729 3.35678 20.0729ZM17.4189 1.69015V10.7238L14.7843 8.50271L12.1932 10.7108V1.69015H17.4189ZM10.4513 1.67274V12.9638H12.1737L14.7906 10.7338L17.4355 12.9638H19.1608V1.67274H21.3381V18.4002H5.23002L5.22566 1.67274H10.4513ZM3.30235 1.67274H3.48377L3.48791 18.4002H3.35656C2.79017 18.4003 2.23361 18.5423 1.74189 18.8123V3.18433C1.74055 2.7853 1.9041 2.40206 2.19664 2.11868C2.48918 1.8353 2.88683 1.67493 3.30235 1.67274V1.67274Z" fill="black"/>
</g>
</svg>
