<svg width="29" height="29" viewBox="0 0 29 29" fill="none" xmlns="http://www.w3.org/2000/svg">
<g id="&#240;&#159;&#166;&#134; icon &#34;settings&#34;">
<path id="Vector" d="M14.2599 8.88501C13.1658 8.88501 12.0963 9.18669 11.1866 9.7519C10.2769 10.3171 9.56786 11.1205 9.14917 12.0604C8.73049 13.0003 8.62094 14.0346 8.83438 15.0324C9.04783 16.0302 9.57468 16.9467 10.3483 17.6661C11.1219 18.3855 12.1076 18.8754 13.1807 19.0739C14.2537 19.2723 15.366 19.1705 16.3768 18.7812C17.3876 18.3918 18.2515 17.7325 18.8594 16.8866C19.4672 16.0407 19.7916 15.0462 19.7916 14.0289C19.79 12.6651 19.2066 11.3576 18.1696 10.3933C17.1325 9.42899 15.7265 8.88656 14.2599 8.88501V8.88501ZM14.2599 17.3022C13.5636 17.3022 12.883 17.1102 12.3041 16.7506C11.7252 16.3909 11.274 15.8796 11.0076 15.2815C10.7412 14.6834 10.6715 14.0252 10.8073 13.3903C10.9431 12.7553 11.2784 12.172 11.7707 11.7142C12.263 11.2565 12.8902 10.9447 13.5731 10.8184C14.256 10.6921 14.9638 10.7569 15.607 11.0047C16.2502 11.2524 16.8 11.672 17.1868 12.2103C17.5736 12.7486 17.7801 13.3814 17.7801 14.0289C17.779 14.8967 17.4078 15.7287 16.7479 16.3424C16.0879 16.9561 15.1932 17.3012 14.2599 17.3022V17.3022Z" fill="black"/>
<path id="Vector_2" d="M28.0609 17.9052L26.0638 16.3765C26.4179 14.8286 26.4179 13.2288 26.0638 11.6809L28.0609 10.1521C28.2913 9.97666 28.4469 9.73066 28.4999 9.4582C28.553 9.18573 28.5 8.90461 28.3505 8.66517L26.3004 5.36358C26.1522 5.12335 25.9169 4.94006 25.6365 4.84655C25.3562 4.75304 25.0492 4.75543 24.7706 4.85328L22.3466 5.69775C21.0839 4.63688 19.5942 3.83626 17.9753 3.34841L17.5499 0.976926C17.5018 0.70362 17.3505 0.455194 17.1233 0.276176C16.896 0.0971576 16.6076 -0.000749176 16.3098 4.31694e-06H12.2099C11.9121 -0.000739587 11.6237 0.0971632 11.3965 0.276168C11.1692 0.455172 11.0179 0.703578 10.9698 0.976868L10.5447 3.34841C8.92578 3.83624 7.43608 4.63686 6.17335 5.69775L3.74912 4.85317C3.47051 4.75537 3.16356 4.75303 2.88327 4.84654C2.60297 4.94006 2.36765 5.12333 2.21946 5.36352L0.169495 8.66534C0.0199877 8.9048 -0.032958 9.18593 0.020141 9.45839C0.07324 9.73084 0.228915 9.97682 0.459285 10.1523L2.45619 11.6809C2.10216 13.2288 2.10216 14.8286 2.45619 16.3765L0.459096 17.9052C0.228763 18.0807 0.0731307 18.3267 0.0200673 18.5992C-0.0329962 18.8716 0.019975 19.1527 0.169495 19.3922L2.21952 22.6938C2.36773 22.934 2.60309 23.1173 2.88342 23.2108C3.16376 23.3043 3.47075 23.3019 3.74937 23.2041L6.17341 22.3596C7.43615 23.4205 8.92585 24.2211 10.5448 24.7089L10.9698 27.0804C11.018 27.3537 11.1692 27.6021 11.3965 27.7811C11.6237 27.9602 11.9121 28.0581 12.2099 28.0574H16.3098C16.6076 28.0581 16.896 27.9602 17.1233 27.7812C17.3505 27.6022 17.5018 27.3538 17.5499 27.0805L17.9751 24.7089C19.594 24.2211 21.0837 23.4205 22.3464 22.3596L24.7706 23.2042C25.0492 23.302 25.3561 23.3043 25.6364 23.2108C25.9167 23.1173 26.1521 22.934 26.3003 22.6938L28.3501 19.392C28.4996 19.1526 28.5527 18.8716 28.4997 18.5991C28.4467 18.3267 28.2912 18.0807 28.0609 17.9052V17.9052ZM24.8779 21.244L21.8537 20.1905L21.3958 20.6192C20.1358 21.8001 18.5599 22.647 16.8305 23.0726L16.2019 23.2267L15.671 26.1869H12.8492L12.3185 23.2267L11.6899 23.0726C9.96053 22.647 8.38458 21.8001 7.12463 20.6192L6.66668 20.1905L3.642 21.244L2.23134 18.9716L4.72246 17.0646L4.55273 16.4816C4.08597 14.8751 4.08597 13.1822 4.55273 11.5757L4.72246 10.9928L2.23134 9.08585L3.64232 6.81332L6.6665 7.86688L7.12444 7.43818C8.38439 6.25729 9.96034 5.41036 11.6897 4.98474L12.3183 4.83066L12.8489 1.87049H15.671L16.2017 4.83066L16.8303 4.98474C18.5597 5.41036 20.1356 6.25729 21.3956 7.43818L21.8535 7.86688L24.8777 6.81332L26.2887 9.08579L23.7976 10.9928L23.9674 11.5757C24.4341 13.1822 24.4341 14.8751 23.9674 16.4816L23.7976 17.0646L26.2887 18.9715L24.8779 21.244Z" fill="black"/>
</g>
</svg>
